<svg width="40" height="40" viewBox="0 0 40 40" fill="none" xmlns="http://www.w3.org/2000/svg">
<path d="M35.3668 11.49C34.8083 10.5331 34.0022 9.74435 33.0334 9.20667L23.0334 3.69001C22.1037 3.18965 21.0643 2.92773 20.0084 2.92773C18.9526 2.92773 17.9132 3.18965 16.9834 3.69001L6.98345 9.20667C6.01467 9.74435 5.20864 10.5331 4.65011 11.49C4.08344 12.4492 3.78417 13.5426 3.78345 14.6567V25.34C3.79123 26.4494 4.09109 27.5373 4.65284 28.494C5.21459 29.4507 6.01842 30.2426 6.98345 30.79L16.9834 36.29C17.9089 36.8037 18.95 37.0732 20.0084 37.0732C21.0669 37.0732 22.108 36.8037 23.0334 36.29L33.0334 30.7733C34.0009 30.2345 34.8065 29.4464 35.3663 28.4909C35.9261 27.5354 36.2198 26.4474 36.2168 25.34V14.74C36.245 13.5983 35.9504 12.4717 35.3668 11.49ZM33.7001 25.34C33.7068 26.0029 33.5336 26.6552 33.1991 27.2275C32.8645 27.7998 32.381 28.2706 31.8001 28.59L21.8001 34.1067C21.6246 34.2056 21.4412 34.2833 21.2501 34.34V20.7067L33.4168 13.39C33.5701 13.7933 33.6434 14.2233 33.6334 14.6567L33.7001 25.34Z" fill="#1A5EC6"/>
</svg>
