<svg width="40" height="40" viewBox="0 0 40 40" fill="none" xmlns="http://www.w3.org/2000/svg">
<path d="M33.3334 36.6668H30.0001V28.3335H33.3334M10.0001 36.6668H6.66675V28.3335H10.0001M38.3334 6.66683V21.6668C38.3334 22.5509 37.9822 23.3987 37.3571 24.0239C36.732 24.649 35.8841 25.0002 35.0001 25.0002H5.00008C4.11603 25.0002 3.26818 24.649 2.64306 24.0239C2.01794 23.3987 1.66675 22.5509 1.66675 21.6668V6.66683C1.66675 5.78277 2.01794 4.93493 2.64306 4.30981C3.26818 3.68469 4.11603 3.3335 5.00008 3.3335H35.0001C35.8841 3.3335 36.732 3.68469 37.3571 4.30981C37.9822 4.93493 38.3334 5.78277 38.3334 6.66683ZM35.0001 6.66683H5.00008V21.6668H35.0001M33.3334 10.0002H25.0001V13.3335H33.3334M30.0001 15.0002H25.0001V18.3335H30.0001M23.3334 18.3335H6.66675L11.2167 12.2668L14.5501 16.8168L15.7667 15.9168L13.6667 13.0335L16.5167 9.25016L23.3334 18.3335Z" fill="#1A5DC6"/>
</svg>
