<svg width="20" height="21" viewBox="0 0 20 21" fill="none" xmlns="http://www.w3.org/2000/svg">
<path d="M8.79454 5.69823L5.97538 2.44407C5.65038 2.06907 5.05454 2.07073 4.67704 2.44907L2.35871 4.77157C1.66871 5.4624 1.47121 6.48823 1.87038 7.31073C4.25506 12.2482 8.23708 16.2358 13.1712 18.6274C13.9929 19.0266 15.0179 18.8291 15.7079 18.1382L18.0479 15.7941C18.427 15.4149 18.4279 14.8157 18.0495 14.4907L14.7829 11.6866C14.4412 11.3932 13.9104 11.4316 13.5679 11.7749L12.4312 12.9132C12.373 12.9742 12.2964 13.0144 12.2132 13.0277C12.1299 13.0409 12.0446 13.0265 11.9704 12.9866C10.1124 11.9166 8.5712 10.3734 7.50371 8.51407C7.46373 8.43969 7.44926 8.35426 7.4625 8.27086C7.47575 8.18747 7.51599 8.11073 7.57704 8.0524L8.71038 6.91823C9.05371 6.57323 9.09121 6.0399 8.79454 5.6974V5.69823Z" stroke="black" stroke-width="2" stroke-linecap="round" stroke-linejoin="round"/>
</svg>
