<svg width="40" height="40" viewBox="0 0 40 40" fill="none" xmlns="http://www.w3.org/2000/svg">
<path fill-rule="evenodd" clip-rule="evenodd" d="M17.1429 2.5C16.6693 2.5 16.2151 2.68814 15.8802 3.02302C15.5453 3.35791 15.3571 3.81211 15.3571 4.28571V8.21429H11.8829C10.0257 8.21429 8.34857 9.32 7.61714 11.0286L4.53714 18.2143C2.02286 18.2714 0 20.3286 0 22.8571V28.5714C0 31.1086 2.03714 33.1714 4.56571 33.2143C4.94306 34.3568 5.67108 35.3512 6.64621 36.0561C7.62135 36.761 8.79393 37.1404 9.99714 37.1404C11.2004 37.1404 12.3729 36.761 13.3481 36.0561C14.3232 35.3512 15.0512 34.3568 15.4286 33.2143H24.5657C24.9431 34.3568 25.6711 35.3512 26.6462 36.0561C27.6213 36.761 28.7939 37.1404 29.9971 37.1404C31.2004 37.1404 32.3729 36.761 33.3481 36.0561C34.3232 35.3512 35.0512 34.3568 35.4286 33.2143C36.6475 33.1955 37.8102 32.6981 38.6655 31.8294C39.5208 30.9607 40.0001 29.7905 40 28.5714V22.8571C40 20.2943 37.9229 18.2143 35.3571 18.2143H29.7486L26.6686 11.0286C26.3093 10.1947 25.7141 9.48407 24.9562 8.98407C24.1983 8.48406 23.3108 8.21649 22.4029 8.21429H18.9286V4.28571C18.9286 3.81211 18.7404 3.35791 18.4055 3.02302C18.0707 2.68814 17.6165 2.5 17.1429 2.5ZM11.8857 11.7857H22.4C22.8286 11.7857 23.2171 12.0429 23.3857 12.4343L26.9286 20.7029C27.2114 21.36 27.8571 21.7857 28.5714 21.7857H35.3571C35.9486 21.7857 36.4286 22.2657 36.4286 22.8571V28.5714C36.4285 28.8431 36.3251 29.1047 36.1394 29.3031C35.9538 29.5014 35.6997 29.6219 35.4286 29.64C35.0516 28.4965 34.3234 27.5012 33.3477 26.7957C32.3721 26.0903 31.1987 25.7107 29.9947 25.711C28.7907 25.7113 27.6175 26.0915 26.6422 26.7975C25.6669 27.5035 24.9392 28.4992 24.5629 29.6429H15.4314C15.0557 28.4982 14.3282 27.5013 13.3525 26.7945C12.3769 26.0877 11.203 25.7069 9.99818 25.7066C8.7934 25.7063 7.61928 26.0864 6.64326 26.7927C5.66725 27.499 4.93917 28.4955 4.56286 29.64C4.29328 29.6198 4.04129 29.4985 3.85742 29.3003C3.67355 29.1021 3.57139 28.8418 3.57143 28.5714V22.8571C3.57143 22.2657 4.05143 21.7857 4.64286 21.7857H5.71429C6.42857 21.7857 7.07429 21.36 7.35429 20.7029L10.8971 12.4343C10.9814 12.2427 11.1193 12.0795 11.2942 11.9644C11.4691 11.8493 11.6764 11.7873 11.8857 11.7857ZM12.5514 21.7857C12.3149 21.7859 12.082 21.7274 11.8737 21.6154C11.6654 21.5034 11.4881 21.3414 11.3578 21.144C11.2276 20.9466 11.1483 20.72 11.1273 20.4844C11.1062 20.2488 11.144 20.0117 11.2371 19.7943L12.9229 15.8657C13.0331 15.6086 13.2164 15.3895 13.45 15.2356C13.6837 15.0817 13.9574 14.9998 14.2371 15H20.0429C20.6143 15 21.1314 15.3429 21.3571 15.8657L23.0429 19.7943C23.136 20.0117 23.1738 20.2488 23.1527 20.4844C23.1317 20.72 23.0524 20.9466 22.9222 21.144C22.7919 21.3414 22.6146 21.5034 22.4063 21.6154C22.198 21.7274 21.9651 21.7859 21.7286 21.7857H12.5514Z" fill="#1A5DC6"/>
</svg>
