<svg width="24" height="25" viewBox="0 0 24 25" fill="none" xmlns="http://www.w3.org/2000/svg">
<g clip-path="url(#clip0_2_311)">
<path fill-rule="evenodd" clip-rule="evenodd" d="M12 0.5C5.375 0.5 0 5.875 0 12.5C0 19.125 5.375 24.5 12 24.5C18.612 24.5 24 19.125 24 12.5C24 5.875 18.612 0.5 12 0.5ZM19.926 6.031C21.4035 7.83034 22.2211 10.0809 22.243 12.409C21.905 12.344 18.521 11.654 15.111 12.084C15.032 11.914 14.967 11.732 14.889 11.55C14.6769 11.0494 14.4515 10.5546 14.213 10.066C17.987 8.53 19.705 6.318 19.926 6.031ZM12 2.271C14.603 2.271 16.985 3.246 18.794 4.847C18.612 5.107 17.063 7.177 13.419 8.543C11.739 5.459 9.879 2.933 9.592 2.543C10.3813 2.35869 11.1894 2.26707 12 2.27V2.271ZM7.64 3.233C7.913 3.598 9.735 6.136 11.44 9.155C6.65 10.431 2.42 10.405 1.965 10.405C2.629 7.229 4.777 4.587 7.64 3.233ZM1.744 12.513V12.201C2.187 12.214 7.158 12.279 12.274 10.743C12.573 11.316 12.846 11.901 13.106 12.487C12.976 12.526 12.833 12.565 12.703 12.604C7.419 14.309 4.607 18.968 4.373 19.359C2.68041 17.4805 1.7438 15.0415 1.744 12.513ZM12 22.756C9.631 22.756 7.445 21.949 5.714 20.596C5.896 20.218 7.978 16.209 13.757 14.192C13.783 14.179 13.797 14.179 13.822 14.166C15.267 17.901 15.852 21.038 16.009 21.936C14.772 22.47 13.419 22.756 12 22.756ZM17.714 20.999C17.61 20.374 17.063 17.381 15.722 13.697C18.937 13.19 21.748 14.023 22.1 14.14C21.657 16.99 20.017 19.45 17.714 20.999Z" fill="black"/>
</g>
<defs>
<clipPath id="clip0_2_311">
<rect width="24" height="24" fill="white" transform="translate(0 0.5)"/>
</clipPath>
</defs>
</svg>
