<svg width="20" height="21" viewBox="0 0 20 21" fill="none" xmlns="http://www.w3.org/2000/svg">
<path d="M1.66797 5.4987C1.66797 5.05667 1.84356 4.63275 2.15612 4.32019C2.46868 4.00763 2.89261 3.83203 3.33464 3.83203H16.668C17.11 3.83203 17.5339 4.00763 17.8465 4.32019C18.159 4.63275 18.3346 5.05667 18.3346 5.4987V15.4987C18.3346 15.9407 18.159 16.3646 17.8465 16.6772C17.5339 16.9898 17.11 17.1654 16.668 17.1654H3.33464C2.89261 17.1654 2.46868 16.9898 2.15612 16.6772C1.84356 16.3646 1.66797 15.9407 1.66797 15.4987V5.4987Z" stroke="black" stroke-width="2" stroke-linecap="round" stroke-linejoin="round"/>
<path d="M1.66797 7.16797L7.9188 12.1688C8.50988 12.6417 9.24432 12.8994 10.0013 12.8994C10.7583 12.8994 11.4927 12.6417 12.0838 12.1688L18.3346 7.16797" stroke="black" stroke-width="2" stroke-linecap="round" stroke-linejoin="round"/>
</svg>
