<?xml version="1.0" encoding="UTF-8"?>
<svg version="1.1" xmlns="http://www.w3.org/2000/svg" width="96" height="96">
<path d="M0 0 C8.80288754 6.34043826 15.4186507 14.72648904 17.58203125 25.4921875 C18.92007691 37.90936834 17.85729499 48.88109459 10.39453125 59.2421875 C3.58210875 67.3274193 -4.72289951 73.55522767 -15.48876953 74.71533203 C-28.40007937 75.61089799 -39.16843729 74.04490094 -49.3515625 65.46484375 C-57.86959925 57.33325857 -62.42046403 48.68416257 -62.88867188 36.85693359 C-63.04371176 24.34263074 -60.22647828 14.71931927 -51.41796875 5.4921875 C-37.63784493 -7.66275112 -16.31305228 -10.17259803 0 0 Z M-48.015625 15.31640625 C-53.53973566 23.88724089 -54.78582942 32.37001858 -53.41796875 42.4921875 C-50.88253289 50.50564538 -46.58204299 56.9879797 -39.41796875 61.4921875 C-34.14348908 64.27464389 -34.14348908 64.27464389 -28.41796875 65.4921875 C-28.41796875 58.5621875 -28.41796875 51.6321875 -28.41796875 44.4921875 C-31.38796875 44.4921875 -34.35796875 44.4921875 -37.41796875 44.4921875 C-37.41796875 41.1921875 -37.41796875 37.8921875 -37.41796875 34.4921875 C-34.44796875 34.4921875 -31.47796875 34.4921875 -28.41796875 34.4921875 C-28.33160156 33.46738281 -28.24523437 32.44257812 -28.15625 31.38671875 C-28.01547789 30.02592169 -27.87348606 28.66525042 -27.73046875 27.3046875 C-27.67697266 26.63115234 -27.62347656 25.95761719 -27.56835938 25.26367188 C-27.14655665 21.50412583 -26.46067703 19.54576958 -24.0859375 16.56640625 C-19.89266515 13.30633653 -16.88398356 13.36759209 -11.66796875 13.4296875 C-10.683125 13.43871094 -9.69828125 13.44773437 -8.68359375 13.45703125 C-7.56210938 13.47443359 -7.56210938 13.47443359 -6.41796875 13.4921875 C-6.41796875 16.4621875 -6.41796875 19.4321875 -6.41796875 22.4921875 C-7.69671875 22.4509375 -8.97546875 22.4096875 -10.29296875 22.3671875 C-12.43668367 22.25005877 -12.43668367 22.25005877 -14.41796875 22.4921875 C-16.91302837 24.98724712 -16.77745251 26.16547638 -17.04296875 29.6171875 C-17.22859375 32.0303125 -17.22859375 32.0303125 -17.41796875 34.4921875 C-13.78796875 34.4921875 -10.15796875 34.4921875 -6.41796875 34.4921875 C-6.91296875 39.4421875 -6.91296875 39.4421875 -7.41796875 44.4921875 C-10.71796875 44.4921875 -14.01796875 44.4921875 -17.41796875 44.4921875 C-17.41796875 51.4221875 -17.41796875 58.3521875 -17.41796875 65.4921875 C-7.74982788 63.07515228 -1.28070522 59.87962029 4.36328125 51.5390625 C9.33101206 43.19582229 10.12230378 34.16670181 7.92578125 24.6484375 C4.91848949 16.24876051 -0.16967155 10.45558126 -7.85546875 5.9921875 C-21.941727 -0.42508159 -38.39944417 2.83182918 -48.015625 15.31640625 Z " fill="#000000" transform="translate(70.41796875,13.5078125)"/>
</svg>
