<svg width="40" height="40" viewBox="0 0 40 40" fill="none" xmlns="http://www.w3.org/2000/svg">
<g clip-path="url(#clip0_78_167)">
<path d="M3.33333 34.9998V36.6665C3.33333 37.1387 3.17333 37.5348 2.85333 37.8548C2.53333 38.1748 2.13778 38.3343 1.66667 38.3332C1.19556 38.3321 0.8 38.1721 0.48 37.8532C0.16 37.5343 0 37.1387 0 36.6665V4.99984C0 4.08317 0.326667 3.29873 0.98 2.6465C1.63333 1.99428 2.41778 1.66762 3.33333 1.6665H15C15.9167 1.6665 16.7017 1.99317 17.355 2.6465C18.0083 3.29984 18.3344 4.08428 18.3333 4.99984V36.6665C18.3333 37.1387 18.1733 37.5348 17.8533 37.8548C17.5333 38.1748 17.1378 38.3343 16.6667 38.3332C16.1956 38.3321 15.8 38.1721 15.48 37.8532C15.16 37.5343 15 37.1387 15 36.6665V34.9998H3.33333ZM3.33333 31.6665H15V4.99984H3.33333V31.6665ZM7.91667 20.9582L11.25 19.0415C11.5278 18.8748 11.6667 18.6387 11.6667 18.3332C11.6667 18.0276 11.5278 17.7915 11.25 17.6248L7.91667 15.7082C7.63889 15.5415 7.36111 15.5415 7.08333 15.7082C6.80556 15.8748 6.66667 16.1109 6.66667 16.4165V20.2498C6.66667 20.5554 6.80556 20.7915 7.08333 20.9582C7.36111 21.1248 7.63889 21.1248 7.91667 20.9582Z" fill="#1A5EC6"/>
</g>
<defs>
<clipPath id="clip0_78_167">
<rect width="40" height="40" fill="white"/>
</clipPath>
</defs>
</svg>
