<svg width="40" height="40" viewBox="0 0 40 40" fill="none" xmlns="http://www.w3.org/2000/svg">
<g clip-path="url(#clip0_80_236)">
<path d="M16.2116 13.8402L20.1083 17.7368C20.7141 18.3388 21.5334 18.6767 22.3874 18.6767C23.2415 18.6767 24.0608 18.3388 24.6666 17.7368L35.6433 6.74349C35.7203 6.67204 35.8215 6.63233 35.9266 6.63233C36.0317 6.63233 36.1329 6.67204 36.2099 6.74349L37.9716 8.50516C38.1199 8.65516 38.3249 8.73849 38.5383 8.73182C38.6394 8.75516 38.7411 8.75516 38.8433 8.73182C38.9988 8.66834 39.1307 8.558 39.2206 8.41612C39.3105 8.27424 39.3539 8.10788 39.3449 7.94016V1.47349C39.3449 1.25911 39.2598 1.05351 39.1082 0.901914C38.9566 0.750322 38.751 0.665158 38.5366 0.665158H32.0699C31.8997 0.652443 31.7297 0.693975 31.5845 0.783799C31.4393 0.873622 31.3263 1.00712 31.2616 1.16516C31.199 1.3116 31.1826 1.47363 31.2144 1.62966C31.2463 1.78569 31.325 1.9283 31.4399 2.03849L33.3483 3.88182C33.387 3.91815 33.4179 3.96203 33.439 4.01076C33.4602 4.0595 33.471 4.11205 33.471 4.16516C33.471 4.21827 33.4602 4.27082 33.439 4.31955C33.4179 4.36829 33.387 4.41217 33.3483 4.44849L28.4983 9.29849C24.1449 -1.02318 10.2533 -2.76151 3.49328 6.16682C1.50328 8.79334 0.463797 12.0176 0.544942 15.3118C0.548276 15.8518 0.580498 16.3907 0.641609 16.9285C0.689489 17.3226 0.880733 17.6854 1.17889 17.9476C1.47704 18.2097 1.86125 18.3531 2.25828 18.3502H2.45161C2.66294 18.3262 2.86745 18.2607 3.05343 18.1575C3.23941 18.0543 3.4032 17.9155 3.53543 17.7489C3.66765 17.5823 3.7657 17.3912 3.82396 17.1867C3.88222 16.9821 3.89954 16.7681 3.87494 16.5568C3.84978 16.115 3.84978 15.672 3.87494 15.2302C4.16328 6.45016 13.8499 1.27183 21.3099 5.91016C23.5069 7.27651 25.1747 9.34857 26.0399 11.7868L22.6783 15.2002C22.5985 15.2728 22.4945 15.313 22.3866 15.313C22.2787 15.313 22.1747 15.2728 22.0949 15.2002L18.1999 11.2702C17.5942 10.6681 16.7748 10.3303 15.9208 10.3303C15.0667 10.3303 14.2474 10.6681 13.6416 11.2702L1.03161 23.8635C0.729483 24.1678 0.560629 24.5797 0.562191 25.0086C0.563754 25.4374 0.735606 25.848 1.03994 26.1502C1.34428 26.4523 1.75617 26.6211 2.185 26.6196C2.61383 26.618 3.02448 26.4462 3.32661 26.1418L4.26494 25.2052C5.66477 26.7139 7.35703 27.9219 9.23867 28.7557C11.1203 29.5895 13.152 30.0317 15.2099 30.0552C18.424 30.0623 21.55 29.0051 24.0999 27.0485C24.1748 26.9861 24.2692 26.952 24.3666 26.952C24.464 26.952 24.5584 26.9861 24.6333 27.0485L26.8966 29.3118C26.9514 29.3651 26.9898 29.433 27.0072 29.5074C27.0247 29.5819 27.0204 29.6597 26.9949 29.7318C26.841 30.1627 26.8125 30.6284 26.9129 31.0748C27.0132 31.5212 27.2381 31.9299 27.5616 32.2535L33.8333 38.5418C35.5066 40.3835 38.5466 39.7218 39.3049 37.3502C39.494 36.7581 39.5084 36.1241 39.3464 35.524C39.1844 34.924 38.8529 34.3833 38.3916 33.9668L32.1349 27.6468C31.6782 27.1957 31.0636 26.9404 30.4216 26.9352C30.1438 26.9352 29.8744 26.9835 29.6133 27.0802C29.5413 27.1058 29.4636 27.1104 29.3891 27.0932C29.3147 27.0761 29.2468 27.038 29.1933 26.9835L26.9299 24.7202C26.8654 24.6463 26.8298 24.5516 26.8298 24.4535C26.8298 24.3554 26.8654 24.2606 26.9299 24.1868C27.9172 22.8826 28.682 21.424 29.1933 19.8702C29.2688 19.6661 29.3023 19.4488 29.2918 19.2314C29.2814 19.0141 29.2271 18.801 29.1323 18.6051C29.0375 18.4092 28.9042 18.2345 28.7402 18.0914C28.5763 17.9483 28.3852 17.8397 28.1783 17.7722C27.9714 17.7048 27.753 17.6798 27.5362 17.6987C27.3194 17.7177 27.1086 17.7802 26.9166 17.8826C26.7245 17.985 26.5551 18.125 26.4185 18.2945C26.2819 18.4639 26.1809 18.6591 26.1216 18.8685C25.3711 21.1578 23.9167 23.1515 21.9658 24.5651C20.015 25.9787 17.6674 26.7399 15.2583 26.7402C13.6334 26.7287 12.0283 26.3828 10.5429 25.7238C9.05761 25.0649 7.7239 24.1071 6.62494 22.9102L15.6783 13.8402C15.7521 13.7756 15.8469 13.74 15.9449 13.74C16.043 13.74 16.1378 13.7756 16.2116 13.8402Z" fill="#1A5EC6"/>
</g>
<defs>
<clipPath id="clip0_80_236">
<rect width="40" height="40" fill="white"/>
</clipPath>
</defs>
</svg>
