<svg width="40" height="40" viewBox="0 0 40 40" fill="none" xmlns="http://www.w3.org/2000/svg">
<g clip-path="url(#clip0_80_247)">
<path fill-rule="evenodd" clip-rule="evenodd" d="M5.7401 18.3285C6.42581 18.0314 7.19153 17.8228 8.02581 17.7342C9.83483 17.5097 11.6613 17.9852 13.131 19.0635C14.6008 20.1418 15.6027 21.7413 15.9315 23.5343L16.1487 24.8028C16.5944 27.4057 16.8001 28.6171 16.9001 31.8914C16.9915 34.9743 14.5972 38.7885 10.1487 39.2657C8.34011 39.4895 6.5144 39.0136 5.04525 37.9353C3.5761 36.8571 2.57462 35.2581 2.24581 33.4657L2.02867 32.2C1.70581 30.3085 1.50867 29.1543 1.38581 27.4085L1.35438 27.1685L0.780097 20.4714V20.4571C-0.00847453 10.6114 7.40581 0.748535 20.0001 0.748535C32.5887 0.748535 40.0058 10.6114 39.223 20.4571V20.4714L38.6715 26.88C38.6626 26.972 38.6493 27.0635 38.6315 27.1542C38.5115 29.04 38.3115 30.2143 37.9744 32.1971L37.7544 33.4657C37.4256 35.2581 36.4241 36.8571 34.9549 37.9353C33.4858 39.0136 31.6601 39.4895 29.8515 39.2657C25.403 38.7885 23.0087 34.9743 23.103 31.8943C23.2001 28.6171 23.4087 27.4085 23.8544 24.8028L24.0687 23.5343C24.3975 21.7413 25.3994 20.1418 26.8692 19.0635C28.3389 17.9852 30.1654 17.5097 31.9744 17.7342C32.8087 17.8228 33.5744 18.0314 34.2601 18.3285C33.9144 11.8685 28.7744 5.74854 20.003 5.74854C11.2258 5.74854 6.08867 11.8685 5.7401 18.3285ZM9.79724 35.7114C8.88638 35.8362 7.9622 35.609 7.21311 35.076C6.46401 34.5429 5.94641 33.7443 5.76581 32.8428L5.54581 31.5485C5.10867 29 4.93438 27.9914 4.84581 24.9685C4.80295 23.5685 5.98867 21.5457 8.37724 21.2885C9.28855 21.1629 10.2134 21.3898 10.9632 21.9229C11.7129 22.456 12.2309 23.2551 12.4115 24.1571L12.6315 25.4485C13.0687 28 13.243 29.0085 13.3344 32.0314C13.3744 33.4314 12.1915 35.4543 9.8001 35.7114M30.2058 35.7114C31.1172 35.8377 32.0425 35.6111 32.7924 35.0779C33.5422 34.5447 34.0601 33.7452 34.2401 32.8428L34.4601 31.5485C34.8972 29 35.0687 27.9914 35.1601 24.9685C35.203 23.5685 34.0172 21.5457 31.6258 21.2885C30.7144 21.1622 29.7892 21.3888 29.0393 21.922C28.2894 22.4552 27.7715 23.2548 27.5915 24.1571L27.3715 25.4428V25.4485C26.9344 28 26.763 29.0085 26.6715 32.0314C26.6287 33.4314 27.8144 35.4543 30.2058 35.7114Z" fill="#1A5EC6"/>
</g>
<defs>
<clipPath id="clip0_80_247">
<rect width="40" height="40" fill="white"/>
</clipPath>
</defs>
</svg>
