<svg width="43" height="43" viewBox="0 0 43 43" fill="none" xmlns="http://www.w3.org/2000/svg">
<path d="M17.3408 32.0963C16.3796 28.8461 13.8375 26.304 10.5873 25.3428L1.1117 22.5405C-0.0823077 22.1874 -0.0823117 20.4962 1.1117 20.1431L10.5873 17.3408C13.8375 16.3796 16.3796 13.8375 17.3408 10.5873L20.1431 1.11169C20.4962 -0.0823216 22.1874 -0.082325 22.5405 1.11168L25.3428 10.5873C26.304 13.8375 28.8461 16.3796 32.0963 17.3408L41.5719 20.1431C42.7659 20.4962 42.7659 22.1874 41.5719 22.5405L32.0963 25.3428C28.8461 26.304 26.304 28.8461 25.3428 32.0962L22.5405 41.5719C22.1874 42.7659 20.4962 42.7659 20.1431 41.5719L17.3408 32.0963Z" fill="#1A5EC6"/>
</svg>
